<?xml version="1.0" encoding="UTF-8" standalone="no"?><svg xmlns="http://www.w3.org/2000/svg" viewBox="0 0 189.375 66.113844" width="189.375" height="66.114"><path d="M168.1 24.2c5.1-4.8 8.9-11.5 10.3-17.9.4-1.7.3-2.1 0-2.4-.1-.1-.2-.1-.2-.1-.4.1-.9 1.1-1.2 1.9-2.6 5.6-5.1 9.3-8.5 12.6-2.3 2.2-5.6 3.7-9.1 5.3-4.2 1.9-8.5 3.8-12 7.3-3.9 3.7-6.3 8.8-7.4 15.7-.2.8-.1 1.3.2 1.6.1.1.2.1.3.1.3-.1.5-.5.5-1 .5-3.7 2.5-7.2 6.5-10.9 2.3-2.2 5.8-3.8 9.5-5.5 3.9-2 8.1-3.9 11.1-6.7m-5.8 18.9c15-14.4 20.1-28 23.3-40.6.4-1.7.2-2.2 0-2.4-.1-.1-.1-.1-.2-.1-.2.1-.5.4-1.2 2.5-3.6 11.8-11.8 24.1-23.8 35.6-23.4 22.4-41.7 28.1-53 16.3-7.6-7.9-5.2-18.2-.5-22.7 3.3-3.1 7.7-5.8 11.7-7 1.4-.4 1.9-.6 1.9-.8v-.1l-.1-.1c-.2-.2-.7-.2-2.4.2-2.4.5-7.4 2.6-11.8 6.8-6.2 5.9-7.9 16.9 0 25.2 12 12.6 35.1 7.3 56.1-12.8m8.2 6.6c9.7-9.3 16.2-21.6 18.4-29.8.7-2.7.5-2.9.2-3.2-.1-.1-.2-.1-.3-.1-.4.1-.9 1-1.6 2.7-2.2 5.4-7.6 16.2-19.4 27.5-8.7 8.3-17.2 14.1-26.1 17.6-2.2.9-2.4 1.1-2.4 1.3 0 .1 0 .1.1.2.3.3 1.4.3 2.6-.1 11.4-3.3 20.3-8.2 28.5-16.1" style="fill:#d6aa5b"/><path d="M80 46.6V30.2c0-.6.3-1 1-1.1v-.5h-6.8v.5c.5.1.7.3.8.5.1.2.2.4.2.7v18.4c0 .3-.1.6-.3.7-.2.2-.4.3-.7.4v.5h19.1c.3 0 .6.1.7.3.2.2.3.4.4.7h.5v-5.6h-.5c-.2.7-.6 1.1-1.1 1.1H80zm-22.6 0V30.2c0-.6.3-1 1-1.1v-.5h-6.8v.5c.5.1.7.3.8.5.1.2.2.4.2.7v18.4c0 .3-.1.6-.3.7-.2.2-.4.3-.7.4v.5h19.1c.3 0 .6.1.7.3.2.2.3.4.4.7h.5v-5.6h-.5c-.2.7-.6 1.1-1.1 1.1H57.4zm-17.6-4.9h-7.1l3.6-7.7 3.5 7.7zm1.4 3l1.5 3.1c.2.3.3.7.3 1.1 0 .3-.1.5-.3.6-.2.1-.4.2-.8.3v.5h8v-.5c-.5-.1-.9-.3-1.1-.6-.3-.3-.5-.8-.8-1.4l-8.3-16.7c-.1-.3-.2-.5-.2-.6 0-.2-.1-.3-.1-.4 0-.3.1-.5.3-.7l.6-.3v-.5h-7.7v.5c.6.2.9.6.9 1.1 0 .2 0 .4-.1.6l-.3.6-8 16.7c-.3.5-.5.9-.7 1.2-.2.2-.6.4-1 .5v.5h7.2v-.5c-.3-.1-.6-.2-.8-.4-.2-.2-.3-.4-.3-.6 0-.2 0-.3.1-.4 0-.1.1-.3.2-.6l1.5-3.1h9.9zM5.7 46.6v-5.9h8.1c1.3 0 2.3.2 3.1.6.8.4 1.2 1.2 1.2 2.3 0 .9-.3 1.7-.9 2.2-.6.5-1.8.8-3.5.8h-8zm0-9.5v-5H14c1.1 0 1.9.2 2.6.5.6.3.9 1 .9 2s-.3 1.7-.9 2c-.6.3-1.5.5-2.6.5H5.7zM22 40.8c-.6-.9-1.5-1.5-2.7-1.9 2-.9 3-2.5 3-4.6 0-2.2-.7-3.7-2.1-4.5-1.4-.8-3.2-1.3-5.5-1.3H0v.5c.3.1.6.2.8.4.2.2.2.4.2.7v18.4c0 .3-.1.6-.3.7-.2.2-.4.3-.7.4v.5h14.8c2.3 0 4.3-.5 5.8-1.5 1.6-1 2.3-2.6 2.3-4.8.1-1.1-.3-2.2-.9-3"/><path d="M122.2 8.3l9 9.3c.2.2.4.4.4.5.1.1.1.3.1.4 0 .1-.1.2-.1.3-.1.1-.2.1-.4.2v.4h5V19c-.3-.1-.4-.2-.6-.3-.1-.1-.2-.3-.2-.6V4.5c0-.2.1-.4.2-.6.1-.1.3-.2.6-.3v-.4h-4.6v.4c.5.1.8.4.8.8v9.5l-8.8-9.2c-.1-.1-.2-.2-.2-.3-.1-.1-.1-.2-.1-.3 0-.2 0-.3.1-.3s.2-.1.4-.2v-.4h-5.4v.4c.3.1.4.2.6.3.1.1.2.3.2.6v13.6c0 .2-.1.4-.2.6-.1.1-.3.2-.6.3v.4h4.7V19c-.3-.1-.4-.2-.6-.3-.1-.1-.2-.3-.2-.6V8.3zM109.4 13h-5.2l2.6-5.7 2.6 5.7zm1.1 2.2l1.1 2.3c.1.2.2.5.2.8 0 .2-.1.4-.2.5-.1.1-.3.2-.6.2v.4h5.9V19c-.4-.1-.6-.2-.8-.4-.2-.2-.4-.6-.6-1l-6.1-12.3c-.1-.2-.1-.3-.2-.5v-.3c0-.2.1-.4.2-.5.2-.1.3-.2.5-.2v-.6h-5.7v.4c.4.1.7.4.7.8 0 .1 0 .3-.1.4-.1.2-.1.3-.2.4l-5.9 12.3c-.2.4-.4.7-.5.9-.2.2-.4.3-.7.4v.4h5.3v-.4l-.6-.3c-.1-.1-.2-.3-.2-.5v-.3c0-.1.1-.2.2-.4l1.1-2.3h7.2zM96 18.9c-.5-.1-.8-.4-.8-.8V4.5c0-.4.3-.7.8-.8v-.5h-5v.4c.3.1.4.2.6.3.1.1.2.3.2.6v13.6c0 .2-.1.4-.2.6-.1.1-.3.2-.6.3v.4h5v-.5zm-19.7-8.8V5.9h5.4c1.1 0 1.9.1 2.5.4.6.2.9.8.9 1.7 0 .9-.3 1.5-.9 1.7-.6.2-1.5.4-2.5.4h-5.4zm0 2.6h4.3l3.2 4.7c.1.1.2.2.3.4.2.2.3.4.3.6 0 .2-.1.3-.2.3s-.3.1-.4.1v.4h5.8v-.4c-.4 0-.8-.1-1.1-.4-.3-.3-.6-.8-1.1-1.4l-3.1-4.4c1.3-.2 2.4-.7 3.2-1.4.8-.7 1.2-1.7 1.2-3.1 0-1.9-.6-3.2-1.7-3.9-1.2-.7-2.8-1-4.8-1h-10v.4c.3.1.4.2.6.3.1.1.2.3.2.6v13.6c0 .2-.1.4-.2.6-.1.1-.3.2-.6.3v.4h5V19c-.5-.1-.8-.4-.8-.8v-5.5zM64.5 5.9h5c.2 0 .4.1.6.2.1.1.2.3.3.6h.4V2.6h-.4c-.1.3-.2.5-.3.6-.1.1-.3.1-.5.1H56.2c-.2 0-.4-.1-.6-.2-.1-.1-.2-.3-.3-.6h-.4v4.1h.4c.1-.3.2-.5.3-.6.1-.1.3-.1.5-.1h5V18c0 .2-.1.4-.2.6-.1.1-.3.2-.6.3v.4h5v-.4c-.3-.1-.5-.2-.6-.3-.1-.1-.1-.3-.1-.5V5.9zM53.4 4.6l-.3-.2c-.1.1-.2.2-.3.2-.1 0-.2.1-.3.1-.2 0-.4-.1-.6-.2-.2-.1-.6-.3-1.2-.5-.6-.3-1.3-.5-2.2-.7-.9-.2-1.8-.3-2.7-.3-1.9 0-3.6.4-5 1.2-1.4.8-2.1 2.1-2.1 3.9 0 2 .6 3.2 1.9 3.7 1.3.5 3.2.8 5.7 1.1 2.5.3 3.7.9 3.7 1.7 0 .8-.4 1.4-1.3 1.8-.9.3-1.8.5-2.9.5-1.1 0-2.4-.2-3.7-.7-1.3-.5-2-1.2-2-2.1l-.4-.1-1.7 3.9.3.2c.2-.2.4-.2.6-.2.1 0 .3 0 .5.1s.6.3 1.1.6c.6.3 1.4.5 2.4.8 1 .2 2 .3 3.1.3 2 0 3.7-.4 5.2-1.2 1.5-.8 2.2-2.1 2.2-3.9 0-2.1-.8-3.4-2.3-3.9-1.6-.5-3.3-.9-5.1-1.1-1.9-.2-3-.4-3.4-.6-.4-.2-.6-.6-.6-1.1.1-.8.5-1.3 1.3-1.5.8-.2 1.7-.3 2.8-.3 1.7 0 2.9.3 3.7.8.8.5 1.3.9 1.4 1 .1.1.2.3.2.6l.3.2 1.7-4.1zM36.9 3.2h-4.7v.4c.3.1.4.2.6.3.1.1.2.3.2.6v8.4c0 1.5-.4 2.6-1.1 3.1-.7.6-1.9.8-3.5.8-.8 0-1.5-.1-2.2-.3-.6-.2-1.2-.4-1.5-.8-.4-.4-.6-.8-.7-1.2-.1-.4-.1-.9-.1-1.6V4.4c0-.2.1-.4.2-.6.1-.1.3-.2.5-.3v-.3h-5v.4c.3.1.4.2.6.3.1.1.2.3.2.6v8.9c0 2.4.7 4 2.1 4.8 1.4.8 3.3 1.3 5.9 1.3 2.6 0 4.5-.4 5.9-1.3 1.4-.8 2-2.5 2-4.8V4.5c0-.4.3-.7.8-.9v-.4zM12.1 13H6.9l2.6-5.7 2.6 5.7zm1 2.2l1.1 2.3c.1.2.2.5.2.8 0 .2-.1.4-.2.5-.1.1-.3.2-.6.2v.4h5.9V19c-.4-.1-.6-.2-.8-.4-.2-.2-.4-.6-.6-1L12 5.3c-.1-.2-.1-.3-.2-.5v-.3c0-.2.1-.4.2-.5.2-.1.3-.2.5-.2v-.6H6.8v.4c.4.1.7.4.7.8 0 .1 0 .3-.1.4-.1.2-.1.3-.2.4L1.3 17.5c-.2.4-.4.7-.5.9-.2.2-.4.3-.7.4v.4h5.3v-.4l-.6-.3c-.1-.1-.2-.3-.2-.5v-.3c0-.1.1-.2.2-.4L5.9 15h7.2z"/></svg>